<?xml version="1.0" encoding="UTF-8"?>
<svg id="Ebene_1" xmlns="http://www.w3.org/2000/svg" xmlns:xlink="http://www.w3.org/1999/xlink" version="1.1" viewBox="0 0 560 100">
  <!-- Generator: Adobe Illustrator 29.2.1, SVG Export Plug-In . SVG Version: 2.1.0 Build 116)  -->
  <defs>
    <style>
      .st0 {
        fill: none;
      }

      .st1 {
        clip-path: url(#clippath);
      }

      .st2 {
        fill: #378adc;
      }
    </style>
    <clipPath id="clippath">
      <rect class="st0" x="48.3" y="20" width="255.7" height="62.3"/>
    </clipPath>
  </defs>
  <g class="st1">
    <path class="st2" d="M72.6,20h-24.4v47.7h16.3v14.6h8c8.9,0,16.1-7.4,16.1-16.4v-29.5c0-9-7.2-16.4-16.1-16.4ZM83,65.9c0,5.8-4.6,10.6-10.3,10.6h-2.3v-23.1h2.3c3.9,0,7.5-1.5,10.3-3.8v16.4ZM83,37c0,5.8-4.6,10.6-10.3,10.6h0s-8,0-8,0v14.3h-10.6V25.9h18.6c5.7,0,10.3,4.7,10.3,10.6v.6ZM117.7,37.5c-1.3-.7-3-1.1-4.9-1.1h-9.9v25.2h5.3v-8.2h4.5c1.9,0,3.6-.4,4.9-1.1,1.4-.7,2.4-1.7,3.1-3,.7-1.3,1.1-2.8,1.1-4.4s-.4-3.2-1.1-4.4c-.7-1.3-1.7-2.3-3.1-3h0ZM115.9,47.1c-.3.6-.8,1.1-1.5,1.5-.7.4-1.5.5-2.5.5h-3.6v-8.4h3.6c1,0,1.9.2,2.5.5.7.3,1.2.8,1.5,1.5.3.6.5,1.4.5,2.2s-.2,1.6-.5,2.2h0ZM181.1,44.8c-.8-.8-1.7-1.4-2.8-1.8-1.1-.4-2.2-.6-3.5-.6-1.8,0-3.5.4-4.8,1.2-1.4.8-2.4,2-3.2,3.4-.7,1.5-1.1,3.2-1.1,5.1s.4,3.7,1.1,5.2c.7,1.5,1.8,2.6,3.2,3.4,1.4.8,3.1,1.2,5,1.2s2.9-.2,4.1-.7c1.2-.5,2.2-1.2,2.9-2,.8-.9,1.3-1.9,1.5-3l-4.8-.3c-.2.5-.4.9-.8,1.2-.3.3-.8.6-1.2.7-.5.2-1,.2-1.6.2-.9,0-1.6-.2-2.3-.6-.6-.4-1.1-.9-1.5-1.6-.3-.7-.5-1.5-.5-2.4h12.8v-1.4c0-1.6-.2-3-.7-4.2-.4-1.2-1.1-2.2-1.9-3h0ZM170.8,50.2c0-.7.2-1.3.5-1.9.3-.6.8-1.1,1.4-1.5.6-.4,1.3-.6,2.1-.6s1.4.2,2,.5c.6.3,1,.8,1.4,1.4.3.6.5,1.2.5,2h-7.9ZM228.7,49.1c-.3.8-.5,1.9-.5,3s.2,2.2.5,3.1c.3.8.8,1.5,1.4,1.9.6.4,1.3.7,2.1.7s1.1-.1,1.6-.4c.5-.2.9-.6,1.2-1.1.3-.5.5-1,.6-1.7h4.9c0,1.4-.5,2.7-1.2,3.8-.7,1.1-1.7,1.9-2.9,2.6-1.2.6-2.7.9-4.3.9s-3.6-.4-5-1.2c-1.4-.8-2.4-2-3.2-3.4-.7-1.5-1.1-3.2-1.1-5.1s.4-3.6,1.1-5.1c.7-1.5,1.8-2.6,3.2-3.4,1.4-.8,3-1.2,4.9-1.2s3.1.3,4.3.9c1.2.6,2.2,1.4,2.9,2.5.7,1.1,1.1,2.4,1.2,3.8h-4.9c-.1-.9-.5-1.7-1.1-2.3-.6-.6-1.4-.9-2.3-.9s-1.5.2-2.1.7c-.6.4-1.1,1.1-1.4,1.9h0ZM304,53.4v-1.4c0-1.6-.2-3-.7-4.2-.4-1.2-1.1-2.2-1.9-3-.8-.8-1.7-1.4-2.8-1.8-1.1-.4-2.2-.6-3.5-.6-1.8,0-3.5.4-4.8,1.2-1.4.8-2.4,2-3.2,3.4-.7,1.5-1.1,3.2-1.1,5.1s.4,3.7,1.1,5.2c.7,1.5,1.8,2.6,3.2,3.4,1.4.8,3.1,1.2,5,1.2s2.9-.2,4.1-.7c1.2-.5,2.2-1.2,2.9-2,.8-.9,1.3-1.9,1.5-3l-4.8-.3c-.2.5-.4.9-.8,1.2-.3.3-.8.6-1.2.7-.5.2-1,.2-1.6.2-.9,0-1.6-.2-2.3-.6-.6-.4-1.1-.9-1.5-1.6-.3-.7-.5-1.5-.5-2.4h12.8s0,0,0,0ZM291.7,48.3c.3-.6.8-1.1,1.4-1.5.6-.4,1.3-.6,2.1-.6s1.4.2,2,.5c.6.3,1,.8,1.4,1.4.3.6.5,1.2.5,2h-7.9c0-.7.2-1.3.5-1.9h0ZM279.5,43.5c-1.2-.7-2.4-1.1-3.8-1.1s-1.9.2-2.6.5c-.7.4-1.3.8-1.7,1.3-.4.5-.8,1-1,1.5h-.2v-3.2h-5.1v26h5.2v-10.1h.2c.2.5.6,1,1,1.6.4.5,1,.9,1.7,1.3.7.3,1.6.5,2.6.5s2.7-.4,3.9-1.1c1.2-.7,2.1-1.8,2.7-3.3.7-1.5,1-3.2,1-5.3s-.3-4-1-5.4c-.7-1.4-1.6-2.5-2.8-3.2h0ZM277.6,55c-.3.8-.7,1.5-1.3,2-.6.5-1.3.7-2.2.7s-1.5-.2-2.1-.7c-.6-.5-1-1.1-1.3-2-.3-.8-.5-1.8-.5-2.9s.2-2.1.5-2.9c.3-.8.8-1.5,1.3-1.9.6-.5,1.3-.7,2.2-.7s1.6.2,2.2.7c.6.5,1,1.1,1.3,1.9.3.8.5,1.8.5,2.9s-.2,2.1-.5,2.9h0ZM219.6,51.6c.4.8.6,1.7.6,2.8,0,1.5-.4,2.9-1.2,4-.8,1.1-1.9,2-3.3,2.6-1.4.6-3.2.9-5.2.9s-3.8-.3-5.3-.9c-1.5-.6-2.7-1.5-3.5-2.8-.8-1.2-1.3-2.8-1.3-4.6h5.1c0,.8.3,1.5.7,2.1.4.6,1,1,1.7,1.3.7.3,1.5.4,2.5.4s1.7-.1,2.3-.4c.7-.3,1.2-.6,1.5-1.1.4-.5.6-1,.6-1.6s-.2-1-.5-1.4c-.3-.4-.8-.7-1.4-1-.6-.3-1.4-.5-2.3-.7l-2.7-.7c-2.1-.5-3.8-1.3-5-2.4-1.2-1.1-1.8-2.6-1.8-4.4,0-1.5.4-2.9,1.2-4,.8-1.1,2-2,3.4-2.7,1.4-.6,3.1-1,4.9-1s3.5.3,4.9,1c1.4.6,2.5,1.5,3.3,2.7.8,1.1,1.2,2.5,1.2,4h-5.1c0-1-.5-1.8-1.3-2.3-.7-.5-1.7-.8-3-.8s-1.6.1-2.2.4c-.6.2-1.1.6-1.4,1-.3.4-.5.9-.5,1.5,0,.5,0,.8.3,1.2.2.3.5.6.9.9.4.2.8.5,1.3.6s1,.3,1.5.4l2.2.5c1.1.2,2.1.6,3,1,.9.4,1.7.9,2.4,1.5.7.6,1.2,1.3,1.5,2.1h0ZM197.6,42.4c.3,0,.6,0,.8.1v4.6c-.2,0-.6-.1-1-.2-.4,0-.8,0-1.2,0-.8,0-1.5.2-2.1.5-.6.3-1.1.8-1.4,1.4-.3.6-.5,1.3-.5,2v10.7h-5.2v-18.9h5.1v3.3h.2c.3-1.2.9-2.1,1.7-2.7.8-.6,1.7-.9,2.8-.9s.5,0,.8,0h0ZM159.1,43.5c-1.2-.7-2.4-1.1-3.8-1.1s-1.9.2-2.6.5c-.7.4-1.3.8-1.7,1.3-.4.5-.8,1-1,1.5h-.2v-3.2h-5.1v26h5.2v-10.1h.2c.2.5.6,1,1,1.6.4.5,1,.9,1.7,1.3.7.3,1.6.5,2.6.5s2.7-.4,3.9-1.1c1.2-.7,2.1-1.8,2.7-3.3.7-1.5,1-3.2,1-5.3s-.3-4-1-5.4c-.7-1.4-1.6-2.5-2.8-3.2h0ZM157.2,55c-.3.8-.7,1.5-1.3,2-.6.5-1.3.7-2.2.7s-1.5-.2-2.1-.7c-.6-.5-1-1.1-1.3-2-.3-.8-.5-1.8-.5-2.9s.2-2.1.5-2.9c.3-.8.8-1.5,1.3-1.9.6-.5,1.3-.7,2.2-.7s1.6.2,2.2.7c.6.5,1,1.1,1.3,1.9.3.8.5,1.8.5,2.9s-.2,2.1-.5,2.9h0ZM257.3,43.6c-1.4-.8-3-1.2-4.9-1.2s-3.5.4-4.9,1.2c-1.4.8-2.4,1.9-3.2,3.4-.7,1.5-1.1,3.2-1.1,5.1s.4,3.6,1.1,5.1,1.8,2.6,3.2,3.4c1.4.8,3,1.2,4.9,1.2s3.5-.4,4.9-1.2c1.4-.8,2.5-2,3.2-3.4.7-1.5,1.1-3.2,1.1-5.1s-.4-3.7-1.1-5.1c-.7-1.5-1.8-2.6-3.2-3.4ZM255.9,55.1c-.3.9-.7,1.5-1.3,2-.6.5-1.3.7-2.2.7s-1.6-.2-2.2-.7c-.6-.5-1-1.2-1.3-2-.3-.9-.4-1.8-.4-2.9s.1-2.1.4-2.9c.3-.9.7-1.5,1.3-2,.6-.5,1.3-.8,2.2-.8s1.6.3,2.2.8c.6.5,1,1.2,1.3,2,.3.9.5,1.8.5,2.9s-.1,2.1-.5,2.9ZM138.2,43.9c-.7-.5-1.6-.9-2.6-1.1-1-.2-2-.4-3-.4-1.5,0-2.8.2-4,.7-1.1.5-2.1,1.1-2.8,1.9s-1.2,1.8-1.4,3l4.8.4c.2-.6.5-1.1,1.1-1.5.6-.4,1.3-.6,2.2-.6s1.6.2,2.1.6c.5.4.7,1,.7,1.8h0c0,.5-.2.8-.5,1-.3.2-.8.4-1.5.5-.7,0-1.5.2-2.6.3-.9,0-1.8.2-2.7.5-.8.2-1.6.5-2.2,1-.7.4-1.2,1-1.6,1.7-.4.7-.6,1.6-.6,2.6s.3,2.3.8,3.1c.5.8,1.3,1.5,2.2,1.9.9.4,2,.6,3.2.6s1.7-.1,2.5-.4c.7-.3,1.3-.6,1.8-1,.5-.5.9-1,1.2-1.6h.1v2.6h4.9v-12.7c0-1.1-.2-2.1-.6-2.9-.4-.8-1-1.5-1.8-2h0ZM135.4,54.8c0,.7-.2,1.3-.5,1.8-.3.5-.8.9-1.4,1.3-.6.3-1.3.5-2,.5s-1.5-.2-2-.6c-.5-.4-.8-.9-.8-1.6s.1-.9.4-1.2c.2-.3.6-.6,1.1-.8.5-.2,1-.3,1.6-.4.3,0,.6,0,1-.1.4,0,.7-.1,1.1-.2.4,0,.7-.2.9-.2.3,0,.5-.2.7-.3v2h0Z"/>
  </g>
</svg>